# xmcd
#
# Track frame offsets: 
#        150
#        16459
#        31443
#        49283
#        63654
#        81806
#        100732
#        117633
#        130484
#        142438
#        156772
#        166741
#        182001
#        202158
#
# Disc length: 2898 seconds
#
# Revision: 0
# Processed by: cddbd v1.5.2PL0 Copyright (c) Steve Scherf et al.
# Submitted via: ExactAudioCopyFreeDBPlugin 1.0
#
DISCID=d20b500e
DTITLE=Pro Musicum - 30 Jahre Pro M
DYEAR=2003
DGENRE=
TTITLE0=Believe In You
TTITLE1=Greifenstein
TTITLE2=Herbstlied
TTITLE3=Jessica
TTITLE4=Brückenschläfer
TTITLE5=She´s In Love With The Boy
TTITLE6=Hannes
TTITLE7=I´m In A Hurry
TTITLE8=Countrysong
TTITLE9=15 Jahre Warten
TTITLE10=He Kleines Girl
TTITLE11=Partys Am Strand
TTITLE12=Dixieland Delight
TTITLE13=Achy Breaky Heart
EXTD=
EXTT0=
EXTT1=
EXTT2=
EXTT3=
EXTT4=
EXTT5=
EXTT6=
EXTT7=
EXTT8=
EXTT9=
EXTT10=
EXTT11=
EXTT12=
EXTT13=
PLAYORDER=
